<svg width="200" height="200" viewBox="0 0 200 200" fill="none" xmlns="http://www.w3.org/2000/svg">
<path d="M155.7 5.46875H45.0816C34.6828 5.48043 24.7133 9.61652 17.3602 16.9696C10.0071 24.3227 5.87106 34.2922 5.85938 44.691V155.309C5.87116 165.708 10.0073 175.678 17.3604 183.031C24.7134 190.384 34.6829 194.52 45.0816 194.531H155.7C166.099 194.519 176.068 190.383 183.421 183.03C190.774 175.677 194.91 165.708 194.922 155.309V44.691C194.91 34.2923 190.774 24.3228 183.421 16.9697C176.068 9.61667 166.099 5.48054 155.7 5.46875ZM190.234 155.309C190.224 164.465 186.582 173.243 180.108 179.717C173.634 186.192 164.856 189.833 155.7 189.844H45.0816C35.9257 189.833 27.1477 186.192 20.6734 179.717C14.1992 173.243 10.5573 164.465 10.5469 155.309V44.691C10.5572 35.535 14.199 26.757 20.6733 20.2827C27.1476 13.8084 35.9256 10.1666 45.0816 10.1562H155.7C164.856 10.1667 173.634 13.8085 180.108 20.2828C186.582 26.7571 190.224 35.5351 190.234 44.691V155.309Z" fill="white"/>
<path d="M155.469 137.109H149.05L140.044 110.575C139.887 110.111 139.588 109.708 139.19 109.423C138.792 109.137 138.314 108.984 137.825 108.984C137.335 108.984 136.857 109.137 136.459 109.423C136.061 109.708 135.762 110.111 135.605 110.575L126.602 137.109H118.734C118.255 137.109 117.787 137.256 117.394 137.53C117.002 137.803 116.702 138.19 116.536 138.639L109.188 158.483L101.84 138.639C101.674 138.19 101.374 137.803 100.981 137.53C100.588 137.256 100.121 137.109 99.6422 137.109H91.2109L82.3687 126.254C82.1441 125.983 81.8621 125.765 81.5431 125.615C81.224 125.466 80.8757 125.389 80.5234 125.391C80.1708 125.395 79.8236 125.479 79.5078 125.636C79.192 125.793 78.9158 126.019 78.6996 126.298L61.5035 148.464L53.798 138.059C53.5801 137.764 53.2961 137.525 52.9689 137.36C52.6417 137.195 52.2804 137.109 51.9141 137.109H44.5312C43.9096 137.109 43.3135 137.356 42.874 137.796C42.4344 138.235 42.1875 138.832 42.1875 139.453C42.1875 140.075 42.4344 140.671 42.874 141.11C43.3135 141.55 43.9096 141.797 44.5312 141.797H50.7336L59.5766 153.738C59.7919 154.029 60.0716 154.266 60.3939 154.431C60.7161 154.596 61.0721 154.683 61.434 154.688H61.4602C61.8176 154.688 62.1703 154.606 62.4912 154.449C62.8122 154.291 63.093 154.063 63.3121 153.78L80.5961 131.5L88.2812 140.933C88.5009 141.203 88.7777 141.42 89.0917 141.57C89.4058 141.719 89.7491 141.797 90.0969 141.797H98.0109L106.992 166.048C107.158 166.497 107.458 166.884 107.851 167.158C108.244 167.431 108.711 167.578 109.19 167.578C109.669 167.578 110.136 167.431 110.529 167.158C110.922 166.884 111.222 166.497 111.388 166.048L120.365 141.797H128.281C128.771 141.797 129.248 141.643 129.646 141.358C130.044 141.073 130.343 140.67 130.5 140.207L137.827 118.621L145.153 140.207C145.31 140.67 145.609 141.073 146.006 141.358C146.404 141.643 146.881 141.797 147.37 141.797H155.469C156.09 141.797 156.686 141.55 157.126 141.11C157.566 140.671 157.812 140.075 157.812 139.453C157.812 138.832 157.566 138.235 157.126 137.796C156.686 137.356 156.09 137.109 155.469 137.109Z" fill="white"/>
<path d="M98.3433 110.764C98.7829 111.204 99.379 111.451 100.001 111.451C100.622 111.451 101.218 111.204 101.658 110.764L136.322 76.0996C138.716 73.7277 140.618 70.9063 141.918 67.7974C143.219 64.6884 143.892 61.3532 143.9 57.9833C143.908 54.6134 143.25 51.2751 141.964 48.1602C140.678 45.0453 138.789 42.2151 136.406 39.8322C134.023 37.4493 131.193 35.5606 128.078 34.2746C124.963 32.9886 121.625 32.3305 118.255 32.3383C114.885 32.3461 111.55 33.0195 108.441 34.3199C105.332 35.6203 102.511 37.5221 100.139 39.916L100.001 40.0539L99.8625 39.916C95.0589 35.1434 88.5592 32.4697 81.7878 32.4806C75.0164 32.4916 68.5255 35.1863 63.7373 39.9744C58.9492 44.7625 56.2544 51.2534 56.2433 58.0248C56.2323 64.7963 58.906 71.2959 63.6785 76.0996L98.3433 110.764ZM66.9922 43.2304C70.9119 39.3121 76.2274 37.1109 81.7697 37.1109C87.312 37.1109 92.6275 39.3121 96.5472 43.2304L98.3441 45.0273C98.5618 45.245 98.8201 45.4177 99.1045 45.5355C99.3889 45.6533 99.6937 45.7139 100.002 45.7139C100.309 45.7139 100.614 45.6533 100.899 45.5355C101.183 45.4177 101.441 45.245 101.659 45.0273L103.454 43.2304C107.381 39.351 112.684 37.1831 118.205 37.2001C123.725 37.2172 129.014 39.4177 132.918 43.3213C136.821 47.2248 139.022 52.5143 139.038 58.0346C139.055 63.555 136.887 68.8578 133.008 72.7851L100 105.793L66.9922 72.7851C63.073 68.8659 60.8712 63.5503 60.8712 58.0078C60.8712 52.4652 63.073 47.1496 66.9922 43.2304Z" fill="white"/>
</svg>
